<svg width="48" height="48" viewBox="0 0 48 48" fill="none" xmlns="http://www.w3.org/2000/svg">
<path d="M0 10C0 4.47715 4.47715 0 10 0H38C43.5229 0 48 4.47715 48 10V38C48 43.5229 43.5228 48 38 48H10C4.47715 48 0 43.5228 0 38V10Z" fill="#E8F4F4"/>
<path d="M27.6967 26.1323C27.6967 25.5589 27.5643 24.9995 27.3112 24.4931C25.1155 24.2237 22.9286 24.2236 20.7329 24.493C20.4798 24.9993 20.3474 25.5588 20.3474 26.1323C20.3474 28.1585 21.9959 29.8069 24.0221 29.8069C26.0483 29.8069 27.6967 28.1585 27.6967 26.1323Z" fill="#1C8C8C"/>
<path d="M29.3769 24.8254C29.4803 25.2504 29.534 25.6886 29.534 26.1323C29.534 29.1716 27.0613 31.6443 24.022 31.6443C20.9827 31.6443 18.51 29.1716 18.51 26.1323C18.51 25.6886 18.5637 25.2504 18.6671 24.8255C13.1335 25.9264 9.40493 28.2417 9.39844 28.2446C11.0759 30.2386 11.6258 31.1171 13.0095 32.368C14.353 27.0372 14.0807 28.1176 14.118 27.9697H16.6727V29.807H15.5527C15.51 29.9738 15.7891 28.883 14.5775 33.6181C20.0971 37.4804 27.735 37.6106 33.438 33.6384C32.1814 29.5635 32.5154 30.6463 32.4574 30.4585L30.9605 29.71L31.7822 28.0667L33.9599 29.1555C34.0187 29.3379 33.6725 28.2634 35.0041 32.3953C36.4182 31.1232 36.9717 30.2318 38.7145 28.1604C36.9691 27.4159 33.9294 25.7311 29.3769 24.8254Z" fill="#1C8C8C"/>
<path d="M36.7021 23.4836C33.6071 19.7034 28.9853 17.5354 24.022 17.5354C24.0217 17.5354 24.0223 17.5354 24.0223 17.5354C19.0589 17.5354 14.4367 19.7036 11.3419 23.4836L9 26.3439C9.00625 26.3402 9.21037 26.2219 9.19764 26.2292C19.2455 21.2052 28.7548 21.1927 38.8166 26.2144L38.9999 26.2901L36.7021 23.4836Z" fill="#1C8C8C"/>
<path d="M23.1033 11.4336H24.9406V15.1082H23.1033V11.4336Z" fill="#1C8C8C"/>
<path d="M27.7161 15.4316L28.5318 11.8489L30.3232 12.2567L29.5075 15.8395L27.7161 15.4316Z" fill="#1C8C8C"/>
<path d="M32.239 16.8005L33.8301 13.4897L35.4856 14.2852L33.8944 17.5961L32.239 16.8005Z" fill="#1C8C8C"/>
<path d="M17.7158 12.26L19.5072 11.8521L20.323 15.4349L18.5316 15.8428L17.7158 12.26Z" fill="#1C8C8C"/>
<path d="M12.5452 14.2817L14.2006 13.4862L15.7917 16.797L14.1363 17.5926L12.5452 14.2817Z" fill="#1C8C8C"/>
</svg>
